<svg width="624" height="624" viewBox="0 0 624 624" fill="none" xmlns="http://www.w3.org/2000/svg">
<g clip-path="url(#clip0)">
<path d="M377.099 225C379.308 225 381.099 226.791 381.099 229V339.826L355.071 345.485C353.54 345.817 352.344 347.013 352.012 348.544L347.038 371.422C346.638 373.26 345.011 374.572 343.129 374.572H275.898C273.689 374.572 271.898 372.781 271.898 370.572V229C271.898 226.791 273.689 225 275.898 225H377.099Z" fill="url(#paint0_linear)"/>
<path d="M346.353 339.826V374.572L381.099 339.826H346.353Z" fill="url(#paint1_linear)"/>
<path d="M364.713 240.127H288C285.791 240.127 284 241.918 284 244.127V245.203C284 247.413 285.791 249.203 288 249.203H364.713C366.922 249.203 368.713 247.413 368.713 245.203V244.127C368.713 241.918 366.922 240.127 364.713 240.127Z" fill="#8AEFFF"/>
<path d="M364.713 261.306H288C285.791 261.306 284 263.097 284 265.306V266.382C284 268.592 285.791 270.382 288 270.382H364.713C366.922 270.382 368.713 268.592 368.713 266.382V265.306C368.713 263.097 366.922 261.306 364.713 261.306Z" fill="#8AEFFF"/>
<path d="M364.713 282.484H288C285.791 282.484 284 284.275 284 286.484V287.56C284 289.77 285.791 291.56 288 291.56H364.713C366.922 291.56 368.713 289.77 368.713 287.56V286.484C368.713 284.275 366.922 282.484 364.713 282.484Z" fill="#8AEFFF"/>
<path d="M364.713 303.662H288C285.791 303.662 284 305.453 284 307.662V308.738C284 310.948 285.791 312.738 288 312.738H364.713C366.922 312.738 368.713 310.948 368.713 308.738V307.662C368.713 305.453 366.922 303.662 364.713 303.662Z" fill="#8AEFFF"/>
<path d="M347.201 255.255C349.41 255.255 351.201 257.046 351.201 259.255V370.081L325.172 375.739C323.642 376.072 322.446 377.268 322.113 378.798L316.455 404.827H246C243.791 404.827 242 403.036 242 400.827V259.255C242 257.046 243.791 255.255 246 255.255H347.201Z" fill="#8AEFFF"/>
<path d="M316.455 370.081V404.827L351.201 370.081H316.455Z" fill="#C7F7FF"/>
<path d="M334.277 270.382H258.64C256.134 270.382 254.102 272.414 254.102 274.92C254.102 277.427 256.134 279.458 258.64 279.458H334.277C336.784 279.458 338.815 277.427 338.815 274.92C338.815 272.414 336.784 270.382 334.277 270.382Z" fill="#C7F7FF"/>
<path d="M334.277 291.56H258.64C256.134 291.56 254.102 293.592 254.102 296.098C254.102 298.605 256.134 300.636 258.64 300.636H334.277C336.784 300.636 338.815 298.605 338.815 296.098C338.815 293.592 336.784 291.56 334.277 291.56Z" fill="#C7F7FF"/>
<path d="M334.277 312.739H258.64C256.134 312.739 254.102 314.771 254.102 317.277C254.102 319.784 256.134 321.815 258.64 321.815H334.277C336.784 321.815 338.815 319.784 338.815 317.277C338.815 314.771 336.784 312.739 334.277 312.739Z" fill="#C7F7FF"/>
<path d="M334.277 333.917H258.64C256.134 333.917 254.102 335.949 254.102 338.455C254.102 340.962 256.134 342.993 258.64 342.993H334.277C336.784 342.993 338.815 340.962 338.815 338.455C338.815 335.949 336.784 333.917 334.277 333.917Z" fill="#C7F7FF"/>
<path fill-rule="evenodd" clip-rule="evenodd" d="M203.349 245.54C166.398 305.308 184.895 383.715 244.663 420.666C304.432 457.617 382.838 439.12 419.79 379.352C456.741 319.583 438.244 241.176 378.475 204.225C318.707 167.274 240.3 185.771 203.349 245.54ZM199.946 243.436C161.834 305.084 180.912 385.956 242.56 424.068C304.207 462.181 385.079 443.103 423.192 381.455C461.305 319.808 442.226 238.936 380.578 200.823C318.931 162.71 238.059 181.789 199.946 243.436Z" fill="url(#paint2_linear)"/>
<path fill-rule="evenodd" clip-rule="evenodd" d="M164.633 204.992C105.287 286.143 122.964 400.037 204.116 459.383C285.266 518.727 399.161 501.05 458.506 419.898C517.852 338.748 500.174 224.853 419.023 165.508C337.872 106.163 223.977 123.841 164.633 204.992ZM161.404 202.63C100.754 285.565 118.82 401.962 201.755 462.612C284.688 523.26 401.086 505.195 461.735 422.261C522.384 339.326 504.319 222.929 421.384 162.279C338.45 101.631 222.052 119.697 161.404 202.63Z" fill="url(#paint3_linear)"/>
<path fill-rule="evenodd" clip-rule="evenodd" d="M192.755 521.621C308.436 587.568 455.674 547.252 521.622 431.571C587.568 315.89 547.251 168.653 431.571 102.705C315.891 36.7579 168.653 77.0747 102.706 192.755C36.7586 308.435 77.075 455.674 192.755 521.621ZM190.774 525.096C308.374 592.137 458.055 551.152 525.096 433.553C592.138 315.953 551.152 166.272 433.552 99.2305C315.953 32.1891 166.272 73.1744 99.2307 190.774C32.1894 308.374 73.175 458.055 190.774 525.096Z" fill="url(#paint4_linear)"/>
<path fill-rule="evenodd" clip-rule="evenodd" d="M22.8924 228.142C-23.6661 387.575 67.8349 554.563 227.267 601.122C386.698 647.681 553.687 556.18 600.246 396.748C646.805 237.317 555.303 70.3272 395.872 23.7689C236.44 -22.7907 69.4517 68.7114 22.8924 228.142ZM19.0527 227.021C-28.1256 388.574 64.5929 557.784 226.145 604.962C387.698 652.14 556.908 559.422 604.086 397.87C651.264 236.317 558.545 67.1075 396.993 19.9291C235.441 -27.2492 66.231 65.4693 19.0527 227.021Z" fill="url(#paint5_linear)"/>
</g>
<defs>
<linearGradient id="paint0_linear" x1="307.231" y1="241.041" x2="391.357" y2="321.361" gradientUnits="userSpaceOnUse">
<stop stop-color="#01E8F7"/>
<stop offset="1" stop-color="#00B3EC"/>
</linearGradient>
<linearGradient id="paint1_linear" x1="357.595" y1="343.552" x2="376.475" y2="368.242" gradientUnits="userSpaceOnUse">
<stop stop-color="#01E8F7"/>
<stop offset="1" stop-color="#00B3EC"/>
</linearGradient>
<linearGradient id="paint2_linear" x1="423.192" y1="381.455" x2="199.946" y2="243.436" gradientUnits="userSpaceOnUse">
<stop stop-color="#01B4EC"/>
<stop offset="1" stop-color="#01E8F8" stop-opacity="0"/>
</linearGradient>
<linearGradient id="paint3_linear" x1="184.028" y1="176.979" x2="439.112" y2="447.913" gradientUnits="userSpaceOnUse">
<stop stop-color="#01B4EC"/>
<stop offset="1" stop-color="#01E8F8" stop-opacity="0"/>
</linearGradient>
<linearGradient id="paint4_linear" x1="490.638" y1="144.13" x2="133.689" y2="480.198" gradientUnits="userSpaceOnUse">
<stop stop-color="#01B4EC"/>
<stop offset="1" stop-color="#01E8F8" stop-opacity="0"/>
</linearGradient>
<linearGradient id="paint5_linear" x1="102.705" y1="90.603" x2="520.435" y2="534.289" gradientUnits="userSpaceOnUse">
<stop stop-color="#01B4EC"/>
<stop offset="1" stop-color="#01E8F8" stop-opacity="0"/>
</linearGradient>
<clipPath id="clip0">
<rect width="624" height="624" fill="white"/>
</clipPath>
</defs>
</svg>
