<svg width="369" height="531" viewBox="0 0 369 531" fill="none" xmlns="http://www.w3.org/2000/svg">
<path opacity="0.06" fill-rule="evenodd" clip-rule="evenodd" d="M10.0694 177.731C4.6917 177.731 0.331543 182.117 0.331543 187.521V530.368H19.8072V187.521C19.8072 182.117 15.4487 177.731 10.0694 177.731Z" fill="url(#paint0_linear)"/>
<path opacity="0.115327" fill-rule="evenodd" clip-rule="evenodd" d="M52.7378 22C47.3601 22 43 26.3851 43 31.7898V374.636H62.4757V31.7898C62.4757 26.3851 58.1172 22 52.7378 22Z" fill="url(#paint1_linear)"/>
<path opacity="0.115327" fill-rule="evenodd" clip-rule="evenodd" d="M309.327 61.9648C303.949 61.9648 299.589 66.35 299.589 71.7547V414.601H319.065V71.7547C319.065 66.35 314.706 61.9648 309.327 61.9648Z" fill="url(#paint2_linear)"/>
<path opacity="0.115327" fill-rule="evenodd" clip-rule="evenodd" d="M358.327 120.965C352.949 120.965 348.589 125.35 348.589 130.755V473.601H368.065V130.755C368.065 125.35 363.706 120.965 358.327 120.965Z" fill="url(#paint3_linear)"/>
<path fill-rule="evenodd" clip-rule="evenodd" d="M188.724 169.833C187.796 169.833 187.044 170.585 187.044 171.522V361.623H190.404V171.522C190.404 170.585 189.652 169.833 188.724 169.833Z" fill="url(#paint4_linear)"/>
<path fill-rule="evenodd" clip-rule="evenodd" d="M109.618 263.526L74.7075 312.779L83.7141 319.594L118.626 270.34L109.618 263.526Z" fill="#038CAB"/>
<path d="M98.9998 255.879C98.9998 270.17 110.522 281.756 124.739 281.756C138.956 281.756 150.484 270.17 150.484 255.879C150.484 241.586 138.956 230 124.739 230C110.522 230 98.9998 241.586 98.9998 255.879Z" fill="#0191B1"/>
<g opacity="0.67" filter="url(#filter0_f)">
<path opacity="0.67" d="M189.5 440C215.181 440 236 433.956 236 426.5C236 419.044 215.181 413 189.5 413C163.819 413 143 419.044 143 426.5C143 433.956 163.819 440 189.5 440Z" fill="#173E69"/>
</g>
<path fill-rule="evenodd" clip-rule="evenodd" d="M189.221 432.029C211.916 432.029 232.367 416.765 251.248 378.286C275.922 328.002 275.029 291.589 264.744 264.092C254.462 236.595 226.282 221.606 189.038 221.606C151.795 221.606 123.608 236.595 113.325 264.092C103.043 291.589 107.837 350.247 137.018 396.24C147.414 412.624 166.527 432.029 189.221 432.029Z" fill="url(#paint5_linear)"/>
<path opacity="0.460403" fill-rule="evenodd" clip-rule="evenodd" d="M189.221 432.029C211.916 432.029 232.367 416.765 251.248 378.286C275.922 328.002 275.029 291.589 264.744 264.092C254.462 236.595 226.282 221.606 189.038 221.606C151.795 221.606 123.608 236.595 113.325 264.092C103.043 291.589 107.837 350.247 137.018 396.24C147.414 412.624 166.527 432.029 189.221 432.029Z" fill="url(#paint6_linear)"/>
<g opacity="0.502069" filter="url(#filter1_f)">
<path opacity="0.502069" fill-rule="evenodd" clip-rule="evenodd" d="M192.415 239.958C145.734 239.958 107.889 201.91 107.889 154.98C107.889 108.045 145.734 70 192.415 70C239.098 70 276.945 108.045 276.945 154.98C276.945 201.91 239.098 239.958 192.415 239.958Z" fill="url(#paint7_linear)"/>
</g>
<g filter="url(#filter2_f)">
<path fill-rule="evenodd" clip-rule="evenodd" d="M212.266 195.987C183.877 197.969 153.708 194.344 131.805 185.112C125.115 182.294 116.586 175.777 112.38 172.43C107.514 164.639 107.872 159.362 107.872 150.241C107.872 143.285 109.473 136.604 112.38 130.367C116.868 134.732 123.339 138.826 131.805 142.394C153.708 151.627 183.877 155.253 212.266 153.271C224.662 151.627 235.54 155.518 235.54 173.65C235.54 190.817 224.323 194.344 212.266 195.987Z" fill="white"/>
</g>
<path opacity="0.873628" fill-rule="evenodd" clip-rule="evenodd" d="M253.462 245.486C239.42 229.914 216.744 221.604 189.038 221.604C163.786 221.604 142.723 228.515 128.562 241.523C144.542 258.901 167.47 269.799 192.958 269.799C216.443 269.799 237.748 260.534 253.462 245.486Z" fill="#00A5CA"/>
<g opacity="0.2" filter="url(#filter3_f)">
<path opacity="0.2" d="M281 135C281 179.735 241.377 216 192.5 216C143.623 216 104 179.735 104 135C104 90.2649 143.623 54 192.5 54C241.377 54 281 90.2649 281 135Z" fill="url(#paint8_linear)"/>
</g>
<path fill-rule="evenodd" clip-rule="evenodd" d="M276.952 154.983C276.952 201.914 239.105 239.961 192.422 239.961C145.74 239.961 107.895 201.914 107.895 154.983C107.895 108.049 145.74 70.0039 192.422 70.0039C239.105 70.0039 276.952 108.049 276.952 154.983Z" fill="url(#paint9_linear)"/>
<path fill-rule="evenodd" clip-rule="evenodd" d="M212.274 195.991C183.884 197.973 153.715 194.347 131.813 185.116C125.122 182.298 116.593 175.781 112.388 172.433C107.521 164.643 107.88 159.365 107.88 150.245C107.88 143.289 109.481 136.608 112.388 130.371C116.875 134.736 123.347 138.83 131.813 142.398C153.715 151.631 183.884 155.257 212.274 153.274C224.669 151.631 235.547 155.522 235.547 173.653C235.547 190.821 224.33 194.347 212.274 195.991Z" fill="white"/>
<path opacity="0.739258" fill-rule="evenodd" clip-rule="evenodd" d="M263.441 276.456C263.44 288.707 253.631 303.601 241.532 309.728C229.435 315.854 219.626 310.89 219.627 298.639C219.628 286.39 229.439 271.494 241.536 265.366C253.634 259.243 263.442 264.205 263.441 276.456Z" fill="#00A5CA"/>
<path fill-rule="evenodd" clip-rule="evenodd" d="M273.032 313.607L300.562 379.836L287.926 385.152L260.394 318.921L273.032 313.607Z" fill="#038CAB"/>
<path fill-rule="evenodd" clip-rule="evenodd" d="M286.752 300.679C286.752 314.972 275.228 326.558 261.016 326.558C246.796 326.558 235.273 314.972 235.273 300.679C235.273 286.384 246.796 274.802 261.016 274.802C275.228 274.802 286.752 286.384 286.752 300.679Z" fill="url(#paint10_linear)"/>
<path d="M290.806 368.021C277.195 375.625 266.16 394.119 266.163 409.323C266.16 423.246 275.405 458.437 287.407 458.471H287.453C288.55 458.467 289.669 458.168 290.808 457.532C304.419 449.93 315.45 396.998 315.45 381.79C315.45 371.001 309.899 364.766 301.812 364.766C298.498 364.768 294.76 365.813 290.806 368.021Z" fill="url(#paint11_linear)"/>
<path d="M84.148 304.747C91.6966 314.226 94.2116 330.606 89.7645 341.328C85.6948 351.148 68.7678 373.171 60.1412 369.566L60.108 369.552C59.3218 369.217 58.6051 368.668 57.9736 367.875C50.4244 358.397 57.9821 317.731 62.4289 307.005C65.5833 299.396 71.392 296.677 77.1982 299.123C79.5765 300.126 81.9546 301.994 84.148 304.747Z" fill="url(#paint12_linear)"/>
<g filter="url(#filter4_f)">
<path fill-rule="evenodd" clip-rule="evenodd" d="M188.274 191.62C159.884 193.602 129.715 189.976 107.813 180.745C101.122 177.927 92.5932 171.41 88.388 168.062C83.5212 160.272 83.8797 154.994 83.8797 145.874C83.8797 138.918 85.4809 132.237 88.388 126C92.8751 130.365 99.3468 134.459 107.813 138.027C129.715 147.26 159.884 150.886 188.274 148.903C200.669 147.26 211.547 151.151 211.547 169.282C211.547 186.45 200.33 189.976 188.274 191.62Z" fill="white"/>
</g>
<defs>
<filter id="filter0_f" x="107" y="377" width="165" height="99" filterUnits="userSpaceOnUse" color-interpolation-filters="sRGB">
<feFlood flood-opacity="0" result="BackgroundImageFix"/>
<feBlend mode="normal" in="SourceGraphic" in2="BackgroundImageFix" result="shape"/>
<feGaussianBlur stdDeviation="18" result="effect1_foregroundBlur"/>
</filter>
<filter id="filter1_f" x="103.389" y="65.5" width="178.056" height="178.958" filterUnits="userSpaceOnUse" color-interpolation-filters="sRGB">
<feFlood flood-opacity="0" result="BackgroundImageFix"/>
<feBlend mode="normal" in="SourceGraphic" in2="BackgroundImageFix" result="shape"/>
<feGaussianBlur stdDeviation="2.25" result="effect1_foregroundBlur"/>
</filter>
<filter id="filter2_f" x="105.166" y="127.667" width="133.074" height="71.5455" filterUnits="userSpaceOnUse" color-interpolation-filters="sRGB">
<feFlood flood-opacity="0" result="BackgroundImageFix"/>
<feBlend mode="normal" in="SourceGraphic" in2="BackgroundImageFix" result="shape"/>
<feGaussianBlur stdDeviation="1.35" result="effect1_foregroundBlur"/>
</filter>
<filter id="filter3_f" x="50" y="0" width="285" height="270" filterUnits="userSpaceOnUse" color-interpolation-filters="sRGB">
<feFlood flood-opacity="0" result="BackgroundImageFix"/>
<feBlend mode="normal" in="SourceGraphic" in2="BackgroundImageFix" result="shape"/>
<feGaussianBlur stdDeviation="27" result="effect1_foregroundBlur"/>
</filter>
<filter id="filter4_f" x="29.8738" y="72" width="235.673" height="174.145" filterUnits="userSpaceOnUse" color-interpolation-filters="sRGB">
<feFlood flood-opacity="0" result="BackgroundImageFix"/>
<feBlend mode="normal" in="SourceGraphic" in2="BackgroundImageFix" result="shape"/>
<feGaussianBlur stdDeviation="27" result="effect1_foregroundBlur"/>
</filter>
<linearGradient id="paint0_linear" x1="10.0698" y1="344.702" x2="10.0698" y2="155.05" gradientUnits="userSpaceOnUse">
<stop stop-color="#52CAE4" stop-opacity="0"/>
<stop offset="1" stop-color="#48D8F4"/>
</linearGradient>
<linearGradient id="paint1_linear" x1="52.7382" y1="188.97" x2="52.7382" y2="-0.681781" gradientUnits="userSpaceOnUse">
<stop stop-color="#52CAE4" stop-opacity="0"/>
<stop offset="1" stop-color="#48D8F4"/>
</linearGradient>
<linearGradient id="paint2_linear" x1="309.327" y1="228.935" x2="309.327" y2="39.2831" gradientUnits="userSpaceOnUse">
<stop stop-color="#52CAE4" stop-opacity="0"/>
<stop offset="1" stop-color="#48D8F4"/>
</linearGradient>
<linearGradient id="paint3_linear" x1="358.327" y1="287.935" x2="358.327" y2="98.2831" gradientUnits="userSpaceOnUse">
<stop stop-color="#52CAE4" stop-opacity="0"/>
<stop offset="1" stop-color="#48D8F4"/>
</linearGradient>
<linearGradient id="paint4_linear" x1="188.723" y1="361.062" x2="188.723" y2="157.495" gradientUnits="userSpaceOnUse">
<stop/>
<stop offset="1" stop-color="#48D8F4"/>
</linearGradient>
<linearGradient id="paint5_linear" x1="201.333" y1="300.326" x2="201.333" y2="432.029" gradientUnits="userSpaceOnUse">
<stop stop-color="#06BCE5"/>
<stop offset="1" stop-color="#35F7EE"/>
</linearGradient>
<linearGradient id="paint6_linear" x1="309" y1="196" x2="201.333" y2="432.029" gradientUnits="userSpaceOnUse">
<stop stop-color="#06BCE5"/>
<stop offset="1" stop-color="#35F7EE"/>
</linearGradient>
<linearGradient id="paint7_linear" x1="181.286" y1="239.802" x2="246.882" y2="-34.0278" gradientUnits="userSpaceOnUse">
<stop stop-color="#06BCE5"/>
<stop offset="1" stop-color="#35F7EE"/>
</linearGradient>
<linearGradient id="paint8_linear" x1="180.847" y1="215.852" x2="205.153" y2="64.434" gradientUnits="userSpaceOnUse">
<stop stop-color="#06BCE5"/>
<stop offset="1" stop-color="#35F7EE"/>
</linearGradient>
<linearGradient id="paint9_linear" x1="181.293" y1="239.806" x2="209.159" y2="81.7704" gradientUnits="userSpaceOnUse">
<stop stop-color="#06BCE5"/>
<stop offset="1" stop-color="#35F7EE"/>
</linearGradient>
<linearGradient id="paint10_linear" x1="247.223" y1="311.451" x2="307.814" y2="261.578" gradientUnits="userSpaceOnUse">
<stop stop-color="#06BCE5"/>
<stop offset="1" stop-color="#A9FFFB"/>
</linearGradient>
<linearGradient id="paint11_linear" x1="289.034" y1="458.471" x2="313.376" y2="369.484" gradientUnits="userSpaceOnUse">
<stop stop-color="#06BCE5"/>
<stop offset="1" stop-color="#A9FFFB"/>
</linearGradient>
<linearGradient id="paint12_linear" x1="68.4333" y1="350.428" x2="68.2193" y2="291.521" gradientUnits="userSpaceOnUse">
<stop stop-color="#039CBE"/>
<stop offset="1" stop-color="#A9FFFB"/>
</linearGradient>
</defs>
</svg>
