<?xml version="1.0" encoding="UTF-8" standalone="no"?>
<!-- Created with Inkscape (http://www.inkscape.org/) -->

<svg
   width="140.66017mm"
   height="22.158325mm"
   viewBox="0 0 140.66017 22.158325"
   version="1.1"
   id="svg1"
   xml:space="preserve"
   xmlns:inkscape="http://www.inkscape.org/namespaces/inkscape"
   xmlns:sodipodi="http://sodipodi.sourceforge.net/DTD/sodipodi-0.dtd"
   xmlns="http://www.w3.org/2000/svg"
   xmlns:svg="http://www.w3.org/2000/svg"><sodipodi:namedview
     id="namedview1"
     pagecolor="#ffffff"
     bordercolor="#000000"
     borderopacity="0.25"
     inkscape:showpageshadow="2"
     inkscape:pageopacity="0.0"
     inkscape:pagecheckerboard="0"
     inkscape:deskcolor="#d1d1d1"
     inkscape:document-units="mm"><inkscape:page
       x="0"
       y="0"
       width="140.66017"
       height="22.158325"
       id="page2"
       margin="0"
       bleed="0" /></sodipodi:namedview><defs
     id="defs1" /><g
     inkscape:label="Layer 1"
     inkscape:groupmode="layer"
     id="layer1"
     transform="translate(-0.01880513,-0.03864491)"><g
       style="fill:none"
       id="g1"
       transform="matrix(0.26458333,0,0,0.26458333,-155.38977,-53.869944)"><g
         mask="url(#mask0_111_44)"
         id="g2"><path
           d="m 900.861,203.749 c 13.894,0 22.621,3.933 30.889,10.989 l -8.957,10.758 c -6.2,-5.321 -12.401,-8.56 -22.506,-8.56 -14.698,0 -26.066,12.955 -26.066,28.455 l 0.007,0.964 c 0.315,16.283 11.143,28.186 27.322,28.186 7.694,0 14.468,-2.429 19.406,-6.131 v -15.037 l 13.665,-12.493 v 34.008 c -8.038,6.825 -19.291,12.609 -33.53,12.609 -25.148,0 -41.683,-18.045 -41.683,-41.643 l 0.006,-0.969 c 0.366,-22.349 17.368,-41.136 41.447,-41.136 z m 90.94,0 c 24.689,0 41.909,18.855 41.909,41.642 v 0.962 c -0.37,22.353 -17.72,41.144 -42.139,41.144 -24.688,0 -41.912,-18.855 -41.912,-41.643 l 0.006,-0.961 c 0.37,-22.353 17.713,-41.144 42.136,-41.144 z m -355.972,0.81 35.368,81.549 h -14.378 l -27.765,-64.545 -27.562,64.545 h -14.121 l 35.368,-81.549 z m 182.166,0 35.368,81.549 h -14.378 l -27.765,-64.545 -27.562,64.545 h -14.121 l 35.368,-81.549 z m 244.045,0.578 43.07,55.986 V 205.137 H 1119 v 80.971 h -11.83 l -44.32,-57.605 v 57.605 h -13.9 v -80.971 z m -70.469,11.799 c -15.961,0 -27.099,12.724 -27.099,28.455 l 0.007,0.924 c 0.325,15.418 11.482,27.995 27.322,27.995 15.959,0 27.099,-12.724 27.099,-28.456 l -0.01,-0.923 c -0.32,-15.418 -11.48,-27.995 -27.319,-27.995 z"
           fill="#3164fa"
           id="path1" /><path
           d="m 724.129,203.749 c 10.125,0 18.064,3.057 23.241,8.231 4.257,4.585 6.673,10.582 6.673,17.754 l -0.003,0.674 c -0.166,12.968 -7.714,20.879 -18.372,24.267 l -0.724,0.221 21.745,31.159 h -16.797 l -19.789,-28.689 -10.388,-0.003 7.289,-12.816 6.09,0.002 c 9.894,0 16.273,-5.053 16.558,-13.184 l 0.009,-0.573 -0.002,-0.548 c -0.142,-8.733 -6.22,-13.326 -16.68,-13.326 h -20.594 l -0.003,25.443 -0.011,-0.002 v 18.355 l 0.011,-0.006 0.003,25.347 h -14.152 v -82.306 z"
           fill="#3164fa"
           id="path2" /></g></g></g></svg>
